<svg width="39" height="56" viewBox="0 0 39 56" fill="none" xmlns="http://www.w3.org/2000/svg">
<g clip-path="url(#clip0_196_522)">
<path d="M18.3594 27.9998C18.3594 25.5245 19.3427 23.1505 21.093 21.4002C22.8434 19.6498 25.2174 18.6665 27.6927 18.6665C30.1681 18.6665 32.542 19.6498 34.2924 21.4002C36.0427 23.1505 37.026 25.5245 37.026 27.9998C37.026 30.4752 36.0427 32.8492 34.2924 34.5995C32.542 36.3498 30.1681 37.3332 27.6927 37.3332C25.2174 37.3332 22.8434 36.3498 21.093 34.5995C19.3427 32.8492 18.3594 30.4752 18.3594 27.9998Z" fill="black"/>
<path d="M10.0256 37.8333H18.8596V46.6663C18.8596 49.009 17.9283 51.2558 16.2717 52.9124C14.6152 54.5689 12.3684 55.5002 10.0256 55.5002C7.68301 55.5002 5.43604 54.5688 3.77954 52.9124C2.12317 51.2558 1.19263 49.0089 1.19263 46.6663C1.19271 44.3236 2.12305 42.0767 3.77954 40.4202C5.33262 38.8671 7.40479 37.9523 9.58813 37.844L10.0256 37.8333Z" fill="black" stroke="black"/>
<path d="M26.6924 0.5C29.035 0.5 31.2819 1.43055 32.9385 3.08691C34.595 4.74341 35.5263 6.99038 35.5264 9.33301C35.5264 11.6758 34.595 13.9225 32.9385 15.5791C31.2819 17.2357 29.0351 18.167 26.6924 18.167H17.8594V0.5H26.6924Z" stroke="black"/>
<path d="M0.692627 9.33333C0.692627 11.8087 1.67596 14.1827 3.4263 15.933C5.17664 17.6833 7.55061 18.6667 10.026 18.6667H19.3593V0H10.026C7.55061 0 5.17664 0.98333 3.4263 2.73367C1.67596 4.48401 0.692627 6.85798 0.692627 9.33333Z" fill="black"/>
<path d="M10.0256 19.1667H18.8596V36.8337H10.0256C7.68301 36.8337 5.43604 35.9023 3.77954 34.2458C2.12317 32.5893 1.19263 30.3423 1.19263 27.9998C1.19271 25.6571 2.12305 23.4102 3.77954 21.7537C5.33262 20.2006 7.40479 19.2858 9.58813 19.1775L10.0256 19.1667Z" stroke="black"/>
</g>
<defs>
<clipPath id="clip0_196_522">
<rect width="37.3333" height="56" fill="white" transform="translate(0.692627)"/>
</clipPath>
</defs>
</svg>
